<svg xmlns="http://www.w3.org/2000/svg" width="14" height="10" fill="none" viewBox="0 0 14 10">
  <path fill="#A7A7A7" d="M3.963 5.5a.956.956 0 0 1-.526-.146c-.14-.094-.218-.221-.218-.354 0-.133.079-.26.218-.354a.956.956 0 0 1 .526-.146.96.96 0 0 1 .525.146c.14.094.218.221.218.354 0 .133-.078.26-.218.354a.956.956 0 0 1-.525.146Zm0 2a.956.956 0 0 1-.526-.146c-.14-.094-.218-.221-.218-.354 0-.133.079-.26.218-.354a.956.956 0 0 1 .526-.146.96.96 0 0 1 .525.146c.14.094.218.221.218.354 0 .133-.078.26-.218.354a.956.956 0 0 1-.525.146Zm2.23-.5c0 .133.078.26.217.354.14.093.329.146.526.146a.956.956 0 0 0 .526-.146c.14-.094.217-.221.217-.354 0-.133-.078-.26-.217-.354a.956.956 0 0 0-.526-.146.956.956 0 0 0-.526.146c-.139.094-.217.221-.217.354Zm3.717.5a.956.956 0 0 1-.526-.146c-.14-.094-.218-.221-.218-.354 0-.133.079-.26.218-.354A.956.956 0 0 1 9.91 6.5a.96.96 0 0 1 .525.146c.14.094.218.221.218.354 0 .133-.078.26-.218.354a.956.956 0 0 1-.525.146ZM6.193 5c0 .133.078.26.217.354.14.093.329.146.526.146a.956.956 0 0 0 .526-.146c.14-.094.217-.221.217-.354 0-.133-.078-.26-.217-.354a.956.956 0 0 0-.526-.146.956.956 0 0 0-.526.146c-.139.094-.217.221-.217.354Zm3.717.5a.956.956 0 0 1-.526-.146c-.14-.094-.218-.221-.218-.354 0-.133.079-.26.218-.354A.956.956 0 0 1 9.91 4.5a.96.96 0 0 1 .525.146c.14.094.218.221.218.354 0 .133-.078.26-.218.354a.956.956 0 0 1-.525.146Zm-5.947-3a.956.956 0 0 0-.526.146c-.14.094-.218.221-.218.354 0 .133.079.26.218.354.14.093.328.146.526.146H9.91a.956.956 0 0 0 .525-.146c.14-.094.218-.221.218-.354 0-.133-.078-.26-.218-.354A.956.956 0 0 0 9.91 2.5H3.963Z"/>
  <path fill="#A7A7A7" fill-rule="evenodd" d="M2.476.5C1.884.5 1.317.658.899.94.48 1.22.246 1.601.246 2v6c0 .398.235.78.653 1.06.418.282.985.44 1.577.44h8.92c.592 0 1.159-.158 1.577-.44.418-.28.653-.662.653-1.06V2c0-.398-.234-.78-.653-1.06-.418-.282-.985-.44-1.577-.44h-8.92Zm8.92 1h-8.92a.956.956 0 0 0-.526.146c-.14.094-.218.221-.218.354v6c0 .133.079.26.218.354.14.093.329.146.526.146h8.92a.956.956 0 0 0 .526-.146c.14-.094.218-.221.218-.354V2c0-.133-.079-.26-.218-.354a.956.956 0 0 0-.526-.146Z" clip-rule="evenodd"/>
</svg>
