<svg xmlns="http://www.w3.org/2000/svg" width="120" height="120" fill="none" viewBox="0 0 120 120">
  <path fill="#000" d="M67.365 119.745c-1.564-.274-3.184-1.016-4.102-1.838a3.613 3.613 0 0 1-.998-2.422c0-.919.469-2.209 1.211-3.495a9.869 9.869 0 0 0 1.054-2.325c.157-.566.487-1.485.742-2.07l.45-1.073.117-7.166c.06-3.964.176-7.635.273-8.205a25.567 25.567 0 0 1 1.25-4.804l.43-1.035-.626-.37c-.566-.353-1.035-.84-2.891-3.05-2.284-2.696-5.291-4.18-9.551-4.687a74.041 74.041 0 0 0-4.2-.293c-6.252-.292-9.825-1.6-13.047-4.766-2.403-2.362-3.652-5.119-4.158-9.18-.683-5.49-1.444-8.302-2.85-10.586a10.479 10.479 0 0 0-1.193-1.583l-.566-.566-1.249.803a35.404 35.404 0 0 1-2.111 1.27 42.066 42.066 0 0 0-4.474 2.85c-3.495 2.54-7.305 5.723-9.394 7.812-.937.938-1.425 1.346-1.642 1.309-1.425-.214-.334-6.386 1.991-11.036 2.97-5.997 7.969-11.524 13.752-15.255 4.747-3.068 12.423-7.287 15.974-8.772 6.308-2.636 14.472-5.49 20.06-7.012 1.173-.334 1.893-.626 2.38-.956 1.096-.762 2.168-1.133 3.398-1.152 1.035-.018 1.133-.037 2.13-.705 1.174-.76 1.522-.802 2.696-.39l.761.274.938-.645.938-.626 1.346.019c1.035.018 1.504-.02 1.954-.214.566-.255.585-.293.742-1.23.352-2.033.39-3.049.176-4.279-.273-1.62-.311-7.909-.037-9.142.292-1.328.487-1.602 1.485-2.09C82.009.342 83.123.128 85.68.128c3.124 0 4.706.432 5.88 1.564 1.054 1.016 1.23 3.398.683 8.985-.334 3.221-.372 4.121-.274 6.229.037 1.346.135 2.617.176 2.794.079.333.157.352 1.29.37 1.114.02 1.309.08 2.362.627 1.017.529 1.778 1.174 1.936 1.643.018.097.194.097.506 0 .603-.177 1.132.018 1.563.547.255.334.409.39.998.39.802 0 1.095.195 1.759 1.174.31.44.736.784 1.23.997 1.095.548 2.58 2.07 3.146 3.282a8.08 8.08 0 0 1 .506 5.76c-.195.705-.195.723.214 1.406.859 1.466 1.174 3.262.821 4.785l-.195.9.585.585c2.91 2.91 2.479 7.657-1.072 11.895a7.56 7.56 0 0 0-.998 1.582c-.682 1.815-1.466 3.087-2.479 4.14l-1.035 1.054h-1.053c-1.054 0-2.539-.352-3.439-.821-.371-.195-.39-.195-.311.037.236.86.821 4.354 1.016 6.29.311 2.97.214 7.285-.195 9.142a14.27 14.27 0 0 1-1.485 3.926c-.39.626-.409.761-.334 1.522.117 1.073-.135 2.873-.566 4.062-.529 1.387-.724 2.032-.84 2.733-.097.604-.097.604.334.604.566 0 .877.334.877.998 0 .292-.255 1.875-.566 3.495-.859 4.552-.919 5.058-.919 9.472-.019 4.553-.019 4.511 1.016 5.194l2.326 1.504a32.33 32.33 0 0 0 6.386 3.281c3.262 1.29 3.712 1.62 3.712 2.715 0 .487-.097.664-.506 1.054-1.249 1.211-3.713 1.485-8.674.956a85.077 85.077 0 0 0-7.755-.371c-6.836-.098-7.834-.334-8.73-2.033-.506-.975-.408-2.246.293-4.335.311-.919.585-1.856.821-2.812.469-2.265.157-4.962-.938-8.007l-.937-2.598c-.919-2.636-1.425-7.463-.877-8.554.097-.214.273-.255.742-.236l.585.06.487-1.017c.372-.802.78-1.327 1.894-2.44l1.425-1.426-.078-.919c-.06-.877-1.212-5.137-1.37-5.118-.06 0-.37.43-.723.975-.859 1.29-2.753 3.28-3.829 4.005-.468.31-.858.682-.858.802-.02.529-.47 1.564-1.017 2.284-.528.705-.566.821-.487 1.444.135.918-.158 3.866-.507 5.41a17.515 17.515 0 0 1-1.29 3.32c-1.346 2.793-2.362 5.291-2.617 6.446a28.348 28.348 0 0 0-.353 3.36c-.06 1.327-.194 2.617-.292 2.891-.135.371-.135.664-.019 1.23.098.409.158 1.328.135 2.051-.019.998.06 1.643.353 2.813.506 1.991.603 3.244.371 3.986-.157.469-.311.645-.84.9-1.174.604-4.493.938-6.289.626l.004.008Zm4.744-1.601c.682-.195 1.271-.78 1.271-1.309 0-.236-.195-.919-.431-1.523-.469-1.151-1.272-4.2-1.272-4.706 0-.255.02-.274.41-.06l.43.236v-.547a7.798 7.798 0 0 0-.333-1.485c-.371-1.114-.409-1.133-2.775-1.271l-1.602-.079-.585.566a5.94 5.94 0 0 0-.84 1.095c-.255.506-.352 1.271-.195 1.444.038.06.432 0 .86-.098a3.44 3.44 0 0 1 .78-.135c0 .019-.432.372-.976.743-2.344 1.759-3.165 2.831-3.165 4.2 0 1.425 1.346 2.539 3.458 2.872 1.444.214 4.256.274 4.961.06l.004-.003Zm31.777-2.325c.585-.705.506-1.425-.236-2.247a6.235 6.235 0 0 0-1.466-1.095 24.827 24.827 0 0 1-1.643-.975 41.692 41.692 0 0 0-3.048-1.796c-.9-.487-1.778-.997-2.637-1.541l-.352-.274v-5.37c0-5.291-.019-5.37-.293-5.291-1.368.371-3.633.547-6.502.487l-3.105-.037.45 1.095c.84 2.07 1.271 4.845 1.271 8.029 0 1.192-.079 1.62-.371 2.46-.158.408-.293.821-.431 1.23-.06.176.157.311.956.547.585.176 1.444.353 1.935.409l.9.097-.098.9c-.097 1.017.019 2.089.274 2.423.157.195.743.274 3.458.39 2.05.097 4.278.311 6.033.566 1.523.236 3.165.431 3.653.431.821.019.9-.018 1.248-.431l.004-.007Zm-31.267-9.139c.079-.06.195-1.114.236-2.363.157-3.495.292-4.005 2.051-7.95 1.444-3.22 2.209-6.228 2.149-8.358l-.038-1.272-.547.53c-1.132 1.132-.352-.646.998-2.228 1.016-1.212 1.368-1.875 1.522-2.948.079-.431.236-.645.9-1.151a16.802 16.802 0 0 0 5.528-7.305c.273-.705.974-3.105 1.563-5.333 1.095-4.12 1.68-5.898 2.209-6.66.195-.292.274-.352.236-.157a27.792 27.792 0 0 0-.663 3.184c-.158.956-.45 2.83-.645 4.14-.372 2.677-.762 4.395-1.29 5.722l-.353.9.938 2.423c.975 2.478 1.425 4.278 1.503 6.015l.06.975-.761.157a3.941 3.941 0 0 0-2.501 1.564c-.664.956-1.035 1.74-.859 1.912.079.08 1.035.255 2.13.39 1.699.195 2.344.195 4.59.06a27.44 27.44 0 0 0 2.891-.273c.214-.079.431-.507.78-1.62.803-2.558.957-3.458.859-5.254l-.079-1.583.409-.528c.956-1.212 1.699-3.398 2.01-5.96.371-3.123-.311-9.667-1.582-15.292-.604-2.677-.86-4.278-.86-5.448v-1.035l-.956.097c-3.438.371-7.597.274-10.136-.255-1.387-.274-4.882-1.309-5.644-1.642l-.603-.274-.079.682c-.06.372-.116.743-.195 1.133-.116.409-.079.506.645 1.211.9.919 1.174 1.388 1.174 2.01 0 .39-.214.705-1.309 1.838a16.37 16.37 0 0 1-2.599 2.246l-1.271.859-.547 1.893c-1.954 6.934-2.326 13.242-1.035 17.753l.31 1.132-.626.78c-2.343 2.948-3.73 5.194-3.945 6.447a30.39 30.39 0 0 1-.43 1.837c-.507 1.935-.9 4.766-1.073 7.834-.12 2.568-.29 5.133-.507 7.695l-.097.761.975.293a15.8 15.8 0 0 0 1.837.45c.878.135 2.502.097 2.753-.038l-.026.004Zm18.963-10.744c1.523-.097 2.91-.334 3.184-.566.116-.079.255-.488.293-.9l.097-.743-1.211.274c-.956.195-1.912.311-2.872.39a48.342 48.342 0 0 1-6.915-.195c-.762-.116-.762-.116-.53.878.196.742.237.78 2.228.918 1.328.117 3.184.098 5.723-.06l.004.004Zm-1.27-3.397c1.99-.177 4.473-.604 4.96-.86.158-.078.293-.37.353-.704l.176-1.035.098-.488-.488.098c-2.167.45-3.81.585-7.091.585-3.202 0-3.574-.019-4.414-.311a3.074 3.074 0 0 0-1.016-.237c-.135.08-.157 1.193-.037 1.973.078.469.157.547.626.682 1.485.41 3.986.507 6.836.274l-.004.023ZM54.063 74.92c4.998-1.444 11.542-5.685 16.893-10.995 1.74-1.74 1.954-1.972 2.187-2.752l.311-.998c.038-.079-.274-.214-.683-.311-1.072-.255-1.893-.878-1.893-1.444 0-.334-.195-.664-.761-1.271-.92-1.035-1.152-1.485-1.25-2.479l-.078-.802-1.095-.78c-.626-.45-2.813-1.662-5.137-2.832a69.594 69.594 0 0 1-5.194-2.812c-1.954-1.309-3.263-2.873-4.005-4.725-.135-.371-.312-.683-.372-.683-.157 0-4.552 4.238-6.427 6.23-4.628 4.882-7.811 9.12-9.825 13.045-.506.975-1.054 2.13-1.211 2.558l-.293.78.353 1.309c.213.705.663 1.856 1.016 2.538 1.23 2.423 2.696 3.885 5.119 5.078 2.599 1.29 4.901 1.74 8.748 1.68 2.07-.019 2.678-.079 3.593-.352l.004.018ZM14.61 57.791c3.281-2.91 7.811-6.094 13.361-9.394 3.634-2.167 17.678-9.198 24.143-12.07a191.015 191.015 0 0 0 2.344-1.073c.116-.08.45-.92.76-1.857 1.37-4.335 2.052-5.193 4.53-5.76.312-.078.39-.176.39-.487 0-.566.39-1.875.724-2.46.255-.45.255-.469.038-.409-.135.038-.956.274-1.815.529-11.914 3.439-22.324 8.006-31.309 13.71-9.588 6.094-15.116 13.399-16.717 22.147l-.116.645 1.173-1.15a49.293 49.293 0 0 1 2.502-2.345l-.008-.026Zm88.38 1.661c.956-.487 2.441-2.733 2.989-4.51a3.9 3.9 0 0 1 .918-1.7c1.444-1.6 2.637-4.51 2.655-6.502 0-3.105-1.758-4.298-4.316-2.97-.334.157-.604.274-.645.236-.135-.135.585-.84 1.466-1.387 1.152-.762 1.369-1.212 1.369-2.832a6.335 6.335 0 0 0-1.114-3.67c-.352-.53-.487-.878-.431-1.096l.353-1.309c.487-1.74.311-3.73-.45-4.998-1.133-1.913-2.52-2.85-4.455-3.008l-1.133-.079.664.743c1.972 2.13 2.929 4.804 2.539 7.091-.195 1.174-.372 1.406-1.504 1.856l-.664.274.079.9c.135 1.466-.116 2.539-1.054 4.511-.469.998-.821 1.894-.78 1.992.117.333 1.406.956 2.423 1.21l.997.237-.626.214c-.821.255-.998.626-.998 1.972 0 1.23.177 1.74 1.073 3.087.409.585.682 1.192.724 1.54.078.548.06.586-.39.743a7.09 7.09 0 0 1-1.564.255c-1.837.117-1.972.177-2.794.957-.742.705-.761.742-.761 1.522 0 1.073.409 3.244.664 3.536.334.353 2.186 1.272 2.91 1.407.624.156 1.284.08 1.856-.214v-.008ZM75.938 57.99c1.192-.938 2.13-1.875 2.654-2.678.334-.487.353-.585.195-.997-.273-.626-2.07-2.246-3.067-2.734a7.802 7.802 0 0 0-2.089-.604l-1.23-.157-.761-.956c-1.582-1.954-2.46-3.477-3.713-6.428-1.095-2.501-2.05-3.964-3.573-5.411-.627-.585-1.073-1.073-1.035-1.073.078 0 .821.372 1.68.822 1.425.76 1.601.82 2.246.723 2.325-.273 4.376-2.947 5.119-6.697.213-1.054.645-2.13 1.095-2.775.019-.019.918.566 1.972 1.327 2.678 1.894 3.263 2.187 4.785 2.247.998.037 1.564-.038 3.36-.47 3.829-.937 7.969-1.308 10.489-.974 1.425.195 3.476.821 4.999 1.541 1.503.705 1.796.743 2.283.311.409-.352.409-.408.409-1.717-.019-1.935-.724-4.024-1.796-5.273-.547-.645-2.089-1.698-3.615-2.5a114.41 114.41 0 0 1-1.62-.878c-.724-.432-1.541-.372-3.769.213-2.58.664-3.262.664-6.21-.097-2.501-.626-2.655-.645-5.118-.255-1.31.195-4.59.079-5.686-.214-.547-.157-1.094-.311-1.62-.506-.956-.371-2.617-.431-4.12-.158-2.99.53-5.255 2.15-6.076 4.354-.431 1.114-.371 1.643.195 1.991.9.567 2.089 2.112 2.089 2.715 0 .038-.292-.213-.626-.566-.84-.877-1.602-1.271-2.502-1.271a3.128 3.128 0 0 0-2.752 1.815c-.263.69-.485 1.395-.664 2.111-.547 1.991-1.035 3.049-2.07 4.455-.919 1.271-1.053 1.838-.724 3.263.822 3.592 2.247 5.04 8.202 8.418 3.123 1.778 4.725 2.775 5.898 3.653.9.664.92.705.84 1.211-.176 1.174.567 2.441 2.033 3.476.371.255.604.53.604.724 0 .353.997.84 1.717.84.409 0 .724-.176 1.564-.821h.007Zm24.082-6.585c2.265.079 2.381-.098 1.174-1.504-1.272-1.466-1.62-2.655-1.152-3.964l.195-.506-.802-.39c-.274-.135-.547-.274-.821-.371-.135.529-.274 1.035-.39 1.564-.293 1.192-.645 4.278-.664 5.587 0 .116.195.079.529-.135.469-.274.705-.311 1.935-.274l-.004-.007Zm-7.597-.116c1.368-.08 2.775-.177 3.146-.237l.682-.097.079-2.246c.116-3.203.585-5.097 1.972-8.127.975-2.148 1.407-4.023 1.193-5.43-.079-.603-.116-.645-.938-.997a21.62 21.62 0 0 0-4.668-1.271c-1.541-.214-6.075-.098-7.774.236a44.17 44.17 0 0 0-2.85.604c-2.13.487-3.263.43-4.883-.274-1.6-.705-2.617-1.346-3.573-2.246-.761-.705-.84-.743-1.035-.507-.158.177-.237.705-.293 1.838-.06 1.74-.334 2.655-1.095 3.885a4.8 4.8 0 0 0-.431.802c0 .06.585.743 1.309 1.485 2.501 2.6 3.731 3.263 5.704 3.124.644-.06 1.094-.037 1.094.038 0 .157-1.27 1.15-1.796 1.425-.255.135-.311.273-.273.566l.31 2.051c.177 1.174.312 1.718.488 1.875.469.39 2.892 1.643 4.414 2.265 1.991.803 3.086 1.095 4.609 1.23 1.875.158 1.912.158 4.609 0v.008Zm-16.152-2.15c.038-.06-.097-1.192-.352-2.5-.311-1.778-.488-2.423-.683-2.6-.135-.115-.859-.625-1.582-1.15a24.675 24.675 0 0 1-2.697-2.247l-1.346-1.327-.724.371-.76.409c.063.305.168.6.31.877.214.47.645 1.62.957 2.558.821 2.441 1.466 3.615 3.086 5.741l.604.803 1.151.176c.645.097 1.29.236 1.466.292.274.117.312.06.39-.566a6.08 6.08 0 0 1 .177-.84l.003.004Zm24.746-24.295c.998-.098 1.174-.237.743-.683-.274-.274-.9-.292-1.406-.06-.334.158-.409.116-.938-.45-.547-.604-.585-.626-1.271-.547-.626.078-.724.06-.802-.195a5.031 5.031 0 0 0-.9-1.133 4.337 4.337 0 0 0-1.62-1.151c-1.212-.469-1.894-.409-3.05.236-3.34 1.815-3.202 1.796-6.427.975-3.007-.761-5.254-1.541-5.977-2.032-.604-.41-1.894-.86-2.97-.998-.803-.116-1.309.06-2.07.683l-.409.333.371.645c.507.9.45.957-.311.293-.821-.683-1.796-1.151-2.422-1.174-.45 0-1.778.585-1.936.84-.06.079.353.176.9.214.567.06 1.347.255 1.875.469 1.37.585 2.07.78 3.32.9 1.368.135 3.847-.02 4.14-.255.157-.135.584-.158 1.484-.08 1.193.08 1.68.196 4.512.957 1.642.45 2.793.409 4.747-.116.9-.255 2.032-.506 2.501-.566.803-.08.957-.038 2.209.528 1.991.9 3.049 1.467 3.634 1.992.585.506.663.506 2.07.39l.003-.015Zm-11.133-3.417 1.192-.626-.037-1.211c-.019-.84-.06-1.661-.098-2.479l-.097-1.249-1.193.92c-.705.547-1.387.955-1.68 1.015-.859.158-5.096 0-5.49-.213a11.464 11.464 0 0 1-1.466-1.29L79.92 15.18l-.019.664c0 .352-.037.956-.116 1.327-.097.705-.097.724.664 1.68.409.529.742.998.742 1.054 0 .371 5.644 2.13 6.915 2.149.409 0 .919-.177 1.778-.627Zm-2.265-4.436c1.406-.274 2.088-1.29 2.617-3.866.548-2.775.822-7.129.566-8.985-.236-1.68-2.11-2.423-5.684-2.306-2.228.078-3.147.292-3.908.937-.469.39-.469.431-.682 2.284-.39 3.555.194 8.614 1.21 10.507.488.92.92 1.25 1.816 1.407 1.016.176 3.183.176 4.061.018l.004.004Z"/>
</svg>
