<svg xmlns="http://www.w3.org/2000/svg" width="140" height="79" fill="none" viewBox="0 0 140 79">
  <g clip-path="url(#a)">
    <path fill="#42446E" d="M0 0h140a3.211 3.211 0 0 1-3.211 3.211H3.211A3.211 3.211 0 0 1 0 0Zm0 0a3.235 3.235 0 0 1 3.235 3.235v72.53A3.235 3.235 0 0 1 0 79V0Zm140 79H0a3.211 3.211 0 0 1 3.211-3.211H136.79A3.211 3.211 0 0 1 140 79Zm0 0a3.235 3.235 0 0 1-3.235-3.235V3.235A3.235 3.235 0 0 1 140 0v79ZM22.492 50.94a1.41 1.41 0 0 1-.504.46c-.682.391-1.335.925-1.433 1.704-.14 1.104.779 2.073 1.89 2.013l.168-.01a63.577 63.577 0 0 1 3.397-.096c.81 0 1.852.032 3.13.096 1.415.072 2.684-.926 2.925-2.322l.144-.83a.302.302 0 0 0-.312-.354l-.84.038c-.485 0-.825-.136-1.019-.41-.194-.272-.291-.762-.291-1.469 0-8.542.137-15.454.412-20.737.232-4.447.55-7.204.953-8.272.105-.278.17-.602.068-.881a.771.771 0 0 0-.85-.494c-.841.139-2.168.344-3.98.615-1.605.24-3.142.458-4.613.653a2.6 2.6 0 0 0-2.248 2.303l-.052.502c-.017.164.02.33.046.492.026.153.17.24.326.24h.718c.517 0 .938.033 1.261.097.421.129.712.394.874.795.162.401.243 1.003.243 1.806v21.677c0 1.156-.138 1.951-.413 2.385ZM30.885 42a2.009 2.009 0 0 0-.295 2.348l4.107 7.437c.711 1.284 1.383 2.2 2.014 2.745.63.546 1.431.9 2.401 1.06.389.064.793.096 1.214.096l1.164-.048a19.44 19.44 0 0 0 1.99-.24 2.061 2.061 0 0 0 1.707-1.751l.159-1.182a.648.648 0 0 0-.064-.378.692.692 0 0 0-.486-.36 5.357 5.357 0 0 1-2.117-.93c-.728-.53-1.399-1.325-2.014-2.384l-3.083-5.224a1.406 1.406 0 0 1 .22-1.713c1.391-1.413 2.62-2.57 3.688-3.468.484-.407.974-.772 1.47-1.093 1.081-.7 1.933-1.762 2.1-3.038l.154-1.164a.293.293 0 0 0-.312-.327c-.403.03-1.095.065-2.077.106a77.39 77.39 0 0 1-3.227.072 149.507 149.507 0 0 1-4.3-.056 2.331 2.331 0 0 0-2.365 1.995l-.112.747a.304.304 0 0 0 .3.35c.816.009 1.397.08 1.745.216.373.145.559.393.559.747 0 .224-.065.457-.195.698-.129.24-.372.538-.727.891L30.884 42Zm22.174 9.922c-.767.163-1.393.756-1.481 1.536-.121 1.065.783 1.978 1.851 1.887l1.406-.116a58.96 58.96 0 0 1 4.707-.217c1.036 0 2.362.032 3.98.096l.7.029a2.847 2.847 0 0 0 2.922-2.355l.186-1.09a.333.333 0 0 0-.069-.265.315.315 0 0 0-.26-.12c-.15.007-.373.022-.665.044-.42.032-.906.048-1.456.048-.744 0-1.27-.24-1.577-.722-.307-.482-.46-1.301-.46-2.457 0-5.299.21-9.474.63-12.525.13-.93.34-1.661.63-2.191.172-.31.387-.608.646-.89.342-.373.497-.898.32-1.372a1.18 1.18 0 0 0-1.278-.755l-.366.054c-.55.065-1.31.169-2.281.313-.97.145-2.233.313-3.785.506-1.178.157-2.522.315-4.032.472a2.526 2.526 0 0 0-2.255 2.235l-.095.877a.505.505 0 0 0 .123.389.541.541 0 0 0 .48.172c.164-.022.375-.047.635-.074.453-.049.938-.073 1.456-.073.905 0 1.528.185 1.868.554.34.37.51 1.1.51 2.192v10.068c0 1.349-.316 2.304-.947 2.866-.44.392-1.122.687-2.043.884Zm23.492.489c1.796 2.12 4.31 3.179 7.546 3.179 2.297 0 4.303-.538 6.017-1.614 1.715-1.075 3.033-2.617 3.955-4.624.922-2.007 1.383-4.36 1.383-7.057 0-3.757-.897-6.688-2.693-8.791-1.796-2.104-4.278-3.155-7.449-3.155-2.297 0-4.31.538-6.041 1.613-1.731 1.076-3.066 2.61-4.004 4.6-.938 1.992-1.407 4.32-1.407 6.985 0 3.79.897 6.744 2.693 8.864Zm12.86-5.564c-1.052.819-2.564 1.228-4.538 1.228-2.038 0-3.64-.457-4.804-1.372-1.164-.916-1.747-2.176-1.747-3.782 0-1.541.518-2.738 1.553-3.589 1.035-.85 2.523-1.276 4.465-1.276 2.102 0 3.736.465 4.9 1.397 1.165.931 1.748 2.216 1.748 3.854 0 1.541-.526 2.721-1.577 3.54Zm12.786 11.657c.647.82 1.683 1.229 3.106 1.229 2.394 0 4.764-.522 7.109-1.566 2.346-1.043 4.255-2.424 5.727-4.142 1.472-1.719 2.208-3.493 2.208-5.323 0-2.152-.922-3.846-2.767-5.082-1.556-1.044-3.86-1.898-6.913-2.564-.994-.217-1.686-1.136-1.575-2.147a1.91 1.91 0 0 1 1.921-1.707c1.474.022 2.854.074 4.141.155l2.753.175a1.375 1.375 0 0 0 1.441-1.138l.894-5.253a1.62 1.62 0 0 0-1.721-1.887c-.657.05-1.167.53-1.564 1.057a1.783 1.783 0 0 1-.517.471c-.437.257-1.124.402-2.062.434l-9.19.327a.699.699 0 0 0-.673.669 359.42 359.42 0 0 1-.304 5.05c-.17 2.628-.392 5.265-.667 7.909a.846.846 0 0 0 .731.925c3.059.41 5.214.917 6.463 1.522 1.294.626 1.941 1.501 1.941 2.625s-.622 2.04-1.868 2.746-2.806 1.06-4.683 1.06c-1.345 0-2.54-.16-3.584-.48-.42-.13-.885-.034-1.188.285-.206.216-.314.51-.288.807.156 1.807.533 3.088 1.129 3.843Z"/>
  </g>
  <defs>
    <clipPath id="a">
      <path fill="#fff" d="M0 0h140v79H0z"/>
    </clipPath>
  </defs>
</svg>
